<svg xmlns="http://www.w3.org/2000/svg" viewBox="0 0 420 360"><defs><radialGradient id="night"><stop stop-color="#294f69"/><stop offset="1" stop-color="#101e33"/></radialGradient><linearGradient id="land" x2="1" y2="1"><stop stop-color="#70dbe4"/><stop offset="1" stop-color="#ffe06a"/></linearGradient></defs><circle cx="210" cy="180" r="155" fill="url(#night)"/><circle cx="210" cy="180" r="155" fill="none" stroke="#76dbe3" stroke-opacity=".35"/><circle cx="210" cy="180" r="130" fill="none" stroke="#76dbe3" stroke-opacity=".15" stroke-dasharray="3 8"/><path d="M195.661,79.382L170.621,82.477L136.033,66.192L163.276,60L180.937,63.87ZM257.492,70.87L235.39,80.156L220.5,78.855L214.791,75.513L226.576,64.644ZM222.169,267.539L250.147,283.001L283.967,283.001L248.645,298.458L180.937,300L182.406,275.253Z" fill="url(#land)" fill-opacity=".83" stroke="#b0eef0" stroke-width="1.2"/><path d="M43 76l5 12 12 5-12 5-5 12-5-12-12-5 12-5z" fill="#ffe06a"/><circle cx="366" cy="265" r="4" fill="#ff977d"/></svg>
