<svg xmlns="http://www.w3.org/2000/svg" viewBox="0 0 420 360"><defs><radialGradient id="night"><stop stop-color="#294f69"/><stop offset="1" stop-color="#101e33"/></radialGradient><linearGradient id="land" x2="1" y2="1"><stop stop-color="#70dbe4"/><stop offset="1" stop-color="#ffe06a"/></linearGradient></defs><circle cx="210" cy="180" r="155" fill="url(#night)"/><circle cx="210" cy="180" r="155" fill="none" stroke="#76dbe3" stroke-opacity=".35"/><circle cx="210" cy="180" r="130" fill="none" stroke="#76dbe3" stroke-opacity=".15" stroke-dasharray="3 8"/><path d="M326.992,283.086L288.893,300L256.637,276.971L263.923,221.765L294.737,220.255L325.474,244.803ZM252.235,189.267L232.655,201.663L198.122,152.709L142.34,139.355L94.222,110.337L93.008,104.135L93.843,89.664L103.178,72.884L127.844,60L189.243,99.206L218.007,148.814L244.798,171.546Z" fill="url(#land)" fill-opacity=".83" stroke="#b0eef0" stroke-width="1.2"/><path d="M43 76l5 12 12 5-12 5-5 12-5-12-12-5 12-5z" fill="#ffe06a"/><circle cx="366" cy="265" r="4" fill="#ff977d"/></svg>
