<svg xmlns="http://www.w3.org/2000/svg" viewBox="0 0 420 360"><defs><radialGradient id="night"><stop stop-color="#294f69"/><stop offset="1" stop-color="#101e33"/></radialGradient><linearGradient id="land" x2="1" y2="1"><stop stop-color="#70dbe4"/><stop offset="1" stop-color="#ffe06a"/></linearGradient></defs><circle cx="210" cy="180" r="155" fill="url(#night)"/><circle cx="210" cy="180" r="155" fill="none" stroke="#76dbe3" stroke-opacity=".35"/><circle cx="210" cy="180" r="130" fill="none" stroke="#76dbe3" stroke-opacity=".15" stroke-dasharray="3 8"/><path d="M321.665,212.898L258.289,184.209L272.407,181.057L319.284,187.91L330,204.728ZM247.335,185.345L202.873,145.015L229.782,144.465L240.634,177.245ZM93.266,181.313L132.081,201.504L155.519,198.5L157.391,202.823L92.381,215.535L90,201.871Z" fill="url(#land)" fill-opacity=".83" stroke="#b0eef0" stroke-width="1.2"/><path d="M43 76l5 12 12 5-12 5-5 12-5-12-12-5 12-5z" fill="#ffe06a"/><circle cx="366" cy="265" r="4" fill="#ff977d"/></svg>
